<?xml version="1.0" encoding="UTF-8"?>
<svg id="Layer_2" data-name="Layer 2" xmlns="http://www.w3.org/2000/svg" viewBox="0 0 121.07 105.28">
  <g id="Layer_1-2" data-name="Layer 1">
    <path d="M120.15,49.49c-1.49-1.42-3.26-2.12-5.17-2.12h-9.91c.14,1.7.21,3.4.21,5.24s-.07,3.54-.21,5.31h6.73c5.1,0,9.27,4.81,9.27,10.83v2.69l-.92-.92c-1.49-1.35-3.26-2.05-5.17-2.05h-11.4c-5.45,23.86-24.5,36.82-54.52,36.82H10.55s5.24-4.04,5.24-17.56v-19.26h-6.44c-5.17,0-9.35-4.89-9.35-10.83v-2.69l.99.85c1.42,1.35,3.19,2.12,5.1,2.12h9.7v-10.55h-6.44c-5.17,0-9.35-4.89-9.35-10.83v-2.69l.99.92c1.42,1.35,3.19,2.05,5.1,2.05h9.7v-18.48C15.79,4.39,10.55,0,10.55,0h38.52c29.17,0,48.71,12.81,54.45,36.82h8.28c5.1,0,9.27,4.81,9.27,10.83v2.69l-.92-.85ZM31.58,5.24v31.58h54.02c-3.68-21.95-16.21-31.58-37.95-31.58h-16.07ZM86.73,47.37H31.58v10.55h55.15c.07-1.77.14-3.47.14-5.31s-.07-3.54-.14-5.24ZM47.79,99.97c23.01-.57,34.34-11.61,37.81-31.51H31.58v31.51h16.21Z"/>
  </g>
</svg>