<svg xmlns="http://www.w3.org/2000/svg" width="15.547" height="17.1" viewBox="0 0 15.547 17.1">
  <path id="noun-calendar-1585315" d="M121.441,42.485h-1.3v1.425h1.3ZM119.5,50.322h-1.3a.715.715,0,0,0,0,1.424h1.3a.715.715,0,0,0,0-1.424Zm-.648-4.987a.682.682,0,0,0,.648-.712v-2.85a.65.65,0,1,0-1.295,0v2.85A.682.682,0,0,0,118.85,45.335Zm4.534,7.837h-1.3a.715.715,0,0,0,0,1.424h1.3a.715.715,0,0,0,0-1.424Zm0-2.85h-1.3a.715.715,0,0,0,0,1.424h1.3a.715.715,0,0,0,0-1.424Zm-.648-4.987a.682.682,0,0,0,.647-.712v-2.85a.65.65,0,1,0-1.3,0v2.85A.682.682,0,0,0,122.737,45.335Zm-.648,3.562h1.3a.715.715,0,0,0,0-1.424h-1.3a.715.715,0,0,0,0,1.424Zm-3.887,0h1.3a.715.715,0,0,0,0-1.424h-1.3a.715.715,0,0,0,0,1.424Zm-2.592,4.274h-1.3a.715.715,0,0,0,0,1.424h1.3a.715.715,0,0,0,0-1.424Zm9.718-10.687h-1.3V43.91h1.3V56.734H112.372V43.91h1.3V42.485h-1.3a1.364,1.364,0,0,0-1.3,1.425V56.734a1.365,1.365,0,0,0,1.3,1.425h12.956a1.365,1.365,0,0,0,1.3-1.425V43.91a1.365,1.365,0,0,0-1.3-1.424Zm-9.718,7.836h-1.3a.715.715,0,0,0,0,1.424h1.3a.715.715,0,0,0,0-1.424Zm1.943-7.836h-1.3V43.91h1.3V42.485ZM119.5,53.172h-1.3a.715.715,0,0,0,0,1.424h1.3a.715.715,0,0,0,0-1.424ZM114.315,48.9h1.3a.715.715,0,0,0,0-1.424h-1.3a.715.715,0,0,0,0,1.424Zm.648-3.562a.682.682,0,0,0,.647-.712v-2.85a.651.651,0,1,0-1.3,0v2.85A.683.683,0,0,0,114.964,45.335Z" transform="translate(-111.077 -41.061)" fill="#e0d206" fill-rule="evenodd"/>
</svg>
