<svg xmlns="http://www.w3.org/2000/svg" width="14" height="14" viewBox="0 0 14 14">
  <g id="Group_36153" data-name="Group 36153" transform="translate(-891 -233.545)">
    <circle id="Ellipse_47" data-name="Ellipse 47" cx="7" cy="7" r="7" transform="translate(891 233.545)" fill="#e0d206"/>
    <g id="noun-car-seat-1694481" transform="translate(737.358 224.479)">
      <path id="Path_37777" data-name="Path 37777" d="M275.19,144.38h2.642v2H275.19Z" transform="translate(-115.853 -130.681)"/>
      <path id="Path_37778" data-name="Path 37778" d="M267.654,13.234h-2.161a.454.454,0,0,1-.344-.153.322.322,0,0,1-.069-.283l.252-1.123a.409.409,0,0,1,.412-.3h1.665a.409.409,0,0,1,.412.3l.244,1.123a.321.321,0,0,1-.069.283.452.452,0,0,1-.344.153Z" transform="translate(-105.912)"/>
      <path id="Path_37779" data-name="Path 37779" d="M299,98a.189.189,0,0,0-.191.191v.619a.191.191,0,0,0,.382,0v-.619A.194.194,0,0,0,299,98Z" transform="translate(-139.063 -85.11)"/>
      <path id="Path_37780" data-name="Path 37780" d="M381.693,98a.189.189,0,0,0-.191.191v.619a.191.191,0,0,0,.382,0v-.619A.2.2,0,0,0,381.693,98Z" transform="translate(-220.31 -85.11)"/>
      <path id="Path_37781" data-name="Path 37781" d="M163.369,402.921a.854.854,0,0,0-.809.389h-3.772a.889.889,0,0,0-.878-.389c-.5.107-.68.741-.619,1.153a1.313,1.313,0,0,0,.351.657,2.7,2.7,0,0,0,.871.7.114.114,0,0,0,.069.015h4.154a.058.058,0,0,0,.038-.015,2.916,2.916,0,0,0,.871-.7,1.341,1.341,0,0,0,.351-.657c.061-.42-.13-1.069-.626-1.153Z" transform="translate(0 -384.693)"/>
      <path id="Path_37782" data-name="Path 37782" d="M275.19,276.5h2.642v2.459H275.19Z" transform="translate(-115.853 -260.494)"/>
      <path id="Path_37783" data-name="Path 37783" d="M202.86,149.577h.168V144.82a.817.817,0,0,0-.641.924,4.944,4.944,0,0,1-.13,1.672,1.531,1.531,0,0,0-.061.221,4.353,4.353,0,0,0-.107.481,3.77,3.77,0,0,0,.015,1.054,1.1,1.1,0,0,1,.756.4Z" transform="translate(-43.997 -131.113)"/>
      <path id="Path_37784" data-name="Path 37784" d="M444.693,149.573a1,1,0,0,1,.84-.4c.069-.221-.13-.733-.137-.947V148.2a2.033,2.033,0,0,0-.023-.244,2.18,2.18,0,0,0-.046-.267c-.015-.061-.023-.1-.031-.122a6.734,6.734,0,0,1-.053-1.81.813.813,0,0,0-.68-.939H444.5v4.765h.191Z" transform="translate(-282.21 -131.109)"/>
    </g>
  </g>
</svg>
