<svg xmlns="http://www.w3.org/2000/svg" width="18" height="20.805" viewBox="0 0 18 20.805">
  <g id="Group_638" data-name="Group 638" transform="translate(18869.75 -6040.5)">
    <path id="Subtraction_2" data-name="Subtraction 2" d="M6.75,21.805a.748.748,0,0,1-.75-.75V14.414l1.37-1.37a2.758,2.758,0,0,1,.13.84v5.671L10,17.681v-3.8a2.733,2.733,0,0,1,.806-1.945l4.133-4.134h-2.33l1.5-1.5H16V4.556a.756.756,0,0,0-.011-.13L17.115,3.3A2.238,2.238,0,0,1,17.5,4.557V6.643a1.738,1.738,0,0,1-.513,1.237L11.866,13a1.241,1.241,0,0,0-.365.884v4.171a.754.754,0,0,1-.3.6l-4,3A.745.745,0,0,1,6.75,21.805Zm-1.64-9.33h0l-4.6-4.6A1.735,1.735,0,0,1,0,6.642V4.556a2.253,2.253,0,0,1,2.25-2.25H15.279l-1.5,1.5H2.25a.751.751,0,0,0-.75.751v1.75H11.28l-1.5,1.5H2.56l3.61,3.61L5.11,12.475Z" transform="translate(-18869.75 6039.5)"/>
    <path id="Line_1" data-name="Line 1" d="M-1.263,14a.735.735,0,0,1-.521-.216.737.737,0,0,1,0-1.042L12.742-1.784a.737.737,0,0,1,1.042,0,.737.737,0,0,1,0,1.042L-.742,13.784A.735.735,0,0,1-1.263,14Z" transform="translate(-18865.75 6042.5)"/>
  </g>
</svg>
