<svg width="13" height="17" viewBox="0 0 13 17" fill="none" xmlns="http://www.w3.org/2000/svg">
<path d="M6.79348 16.829C6.73558 16.8998 6.50785 16.9426 6.40905 16.9513C4.65633 17.1075 2.66706 16.8267 0.888728 16.9511C0.756784 16.9609 0.540896 16.8882 0.5 16.7538L0.515713 0.127818C0.550152 0.0871204 0.59729 0.0629563 0.647441 0.046635C0.877535 -0.027765 2.07751 0.00466576 2.38983 0.0233187C8.40048 0.385568 12.2019 4.62128 12.4854 10.4344C12.4989 10.7123 12.5202 12.3898 12.4567 12.5193C12.3265 12.7845 11.7079 12.5367 11.4412 12.5172C9.36455 12.3661 7.3714 13.693 6.93963 15.7338C6.89184 15.9595 6.86601 16.7402 6.79348 16.829ZM1.02498 0.550265V16.3421L6.29411 16.3744C6.43919 14.8374 7.28724 13.4024 8.64585 12.616C9.60196 12.0625 10.452 11.9589 11.5484 11.9898C11.7658 11.996 11.9662 12.173 12.0039 11.8631C12.0605 11.3949 11.9429 10.2206 11.8876 9.70528C11.6954 7.90993 11.0729 5.96323 10.0105 4.48838C7.98829 1.68153 4.43291 0.489007 1.02498 0.550265Z" fill="#909090"/>
<path d="M2.35216 2.04165C4.10811 1.85491 6.79003 2.75386 8.17081 3.82132C9.44419 4.8059 10.6661 6.74454 10.8637 8.34106C10.8852 8.51445 10.9175 8.63506 10.7191 8.69907L2.01057 8.67512L1.93287 8.48795V2.31424L2.01057 2.12729C2.06847 2.08235 2.268 2.05056 2.35216 2.04165ZM10.2343 8.19565C9.93128 6.59362 9.02425 5.10265 7.71192 4.1151C6.21103 2.98554 4.33971 2.57687 2.47055 2.55397V8.19587L10.2343 8.19565Z" fill="#909090"/>
<path d="M5.08101 9.73749C5.27559 9.92657 5.05023 10.1712 4.80076 10.2002C4.2831 10.2606 2.68708 10.2642 2.17911 10.1943C1.84957 10.1489 1.82525 9.71481 2.17351 9.66945C2.73766 9.5959 4.21035 9.61964 4.80184 9.66966C4.886 9.67687 5.02009 9.67835 5.08101 9.73749Z" fill="#909090"/>
</svg>
