<svg xmlns="http://www.w3.org/2000/svg" width="18.74" height="15" viewBox="0 0 18.74 15">
  <path id="Path_14476" data-name="Path 14476" d="M118.458,165.2h7.481a2.179,2.179,0,0,1,1.154.385l7.695,5.771a1.52,1.52,0,0,1,.556,1.112v5.878a.856.856,0,0,1-.855.855h-16.03a.856.856,0,0,1-.855-.855v-12.29a.856.856,0,0,1,.855-.855Zm1.069,10.183H122.2a.321.321,0,0,0,0-.641h-2.672a.321.321,0,0,0,0,.641Zm-.534-3.069a.536.536,0,0,0,.534.534h12.824c.294,0,.344-.147.111-.326l-6.1-4.692a1.837,1.837,0,0,0-.958-.326h-5.878a.536.536,0,0,0-.534.534Z" transform="translate(-117.103 -164.697)" fill="none" stroke="#e0d206" stroke-width="1"/>
</svg>
