<svg xmlns="http://www.w3.org/2000/svg" width="17.5" height="19.5" viewBox="0 0 17.5 19.5">
  <path id="filter-Regular_1_" d="M365.5,1156.25h-13a2.252,2.252,0,0,0-2.25,2.25v2.086a1.736,1.736,0,0,0,.513,1.237l5.121,5.121a1.242,1.242,0,0,1,.366.884V1175a.75.75,0,0,0,1.2.6l4-3a.753.753,0,0,0,.3-.6v-4.171a1.242,1.242,0,0,1,.366-.884l5.121-5.121a1.738,1.738,0,0,0,.513-1.237V1158.5A2.252,2.252,0,0,0,365.5,1156.25Zm-13,1.5h13a.75.75,0,0,1,.75.75v1.75h-14.5v-1.75A.75.75,0,0,1,352.5,1157.75Zm8.556,8.134a2.731,2.731,0,0,0-.806,1.945v3.8l-2.5,1.875v-5.671a2.731,2.731,0,0,0-.806-1.945l-4.134-4.134h12.379Z" transform="translate(-350.25 -1156.25)"/>
</svg>
