<svg xmlns="http://www.w3.org/2000/svg" width="25" height="22.5" viewBox="0 0 25 22.5">
  <path id="image-Filled_1_" d="M223.75,2844h-12.5a6.257,6.257,0,0,0-6.25,6.25v10a6.257,6.257,0,0,0,6.25,6.25h12.5a6.257,6.257,0,0,0,6.25-6.25v-10A6.257,6.257,0,0,0,223.75,2844Zm-12.5,2.5h12.5a3.754,3.754,0,0,1,3.75,3.75v5.732l-4.479-4.479a2.508,2.508,0,0,0-3.543,0l-5.729,5.729-.729-.729a2.508,2.508,0,0,0-3.543,0l-1.979,1.979v-8.232A3.754,3.754,0,0,1,211.25,2846.5Zm-.625,5a1.875,1.875,0,1,1,1.875,1.875A1.876,1.876,0,0,1,210.625,2851.5Z" transform="translate(-205 -2844)" fill="#6a6a6a"/>
</svg>
