<svg xmlns="http://www.w3.org/2000/svg" width="490.001" height="490" viewBox="0 0 490.001 490">
  <g id="noun-log-out-344460" transform="translate(-105 -34.998)">
    <path id="Path_46395" data-name="Path 46395" d="M471.26,354.25,496.006,379l99-99-99-99-24.75,24.75,56.75,56.746h-248v35h248Z"/>
    <path id="Path_46396" data-name="Path 46396" d="M498.19,428.49a209.993,209.993,0,0,1-296.98,0C161.542,388.826,140,336.092,140,280s21.543-108.82,61.211-148.49a209.983,209.983,0,0,1,296.98,0q4.148,4.148,8.02,8.488H550.76A244.678,244.678,0,0,0,349.711,35C214.4,35,105,144.7,105,280s109.4,245,244.71,245A244.656,244.656,0,0,0,550.76,420H506.214q-3.885,4.336-8.027,8.492Z"/>
  </g>
</svg>
