<svg width="198" height="72" viewBox="0 0 198 72" fill="none" xmlns="http://www.w3.org/2000/svg">
<path d="M48.0036 69.0937C48.6033 68.9185 48.9104 68.4365 48.9104 67.6917V65.9538C48.9104 64.946 48.3254 64.4495 47.1698 64.4495H40.5L40.7487 65.2381V71.1968L40.5 72H42.8257L42.6063 71.1968V69.1959H44.1421L47.1113 71.9708L47.1552 72H49.6271L49.671 71.8686L46.4092 69.1959C47.2722 69.1959 47.7988 69.1521 48.0036 69.0937ZM42.5916 67.7939V65.8661H46.3946C46.7164 65.8661 46.848 65.9099 46.9212 65.9538C47.0382 66.0122 47.0967 66.1582 47.0967 66.3773V67.2682C47.0967 67.4872 47.0382 67.6333 46.9066 67.6917C46.8188 67.7501 46.6433 67.7793 46.38 67.7793H42.5916V67.7939Z" fill="black"/>
<path d="M56.3116 70.4665V68.7724H59.6611L59.7343 68.6994V67.4288L59.6611 67.3558H56.3116V65.8515H62.1038L62.177 65.7785V64.5225L62.1038 64.4495H54.2053L54.4394 65.1943V71.2552L54.2053 72H62.177L62.2501 71.927V70.5396L62.177 70.4665H56.3116Z" fill="black"/>
<path d="M80.4897 64.4495L80.4166 64.5225V65.8369L80.4897 65.9099H83.8247V71.2114L83.576 72H85.9017L85.6969 71.2698V65.9099H89.0464L89.1196 65.8369V64.5225L89.0464 64.4495H80.4897Z" fill="black"/>
<path d="M123.668 72C122.937 72 122.454 71.8832 122.176 71.6203C121.898 71.372 121.752 70.8901 121.752 70.1744V66.2751C121.752 66.1582 121.752 66.0706 121.752 65.9684V65.1943L121.518 64.4495H123.844H123.829H128.042C129.124 64.4495 130.002 65.3258 130.002 66.4065V66.7424L129.943 66.8154H128.217L128.129 66.7424V65.9099H123.61V70.4519H128.129V69.5026L128.217 69.4296H129.943L130.002 69.5026V70.0284C130.002 71.1091 129.124 71.9854 128.042 71.9854H123.654L123.668 72Z" fill="black"/>
<path d="M139.831 64.4495H138.163L138.105 64.4787L133.907 71.8832L133.965 71.9854H135.691L135.75 71.9416L136.598 70.3643H141.22L142.083 71.9416L142.142 71.9854H144.087L144.146 71.8686L139.889 64.4641L139.831 64.4349V64.4495ZM137.403 68.9039L138.924 66.1144L140.401 68.9039H137.388H137.403Z" fill="black"/>
<path d="M105.385 64.4495H103.717L103.659 64.4787L99.4607 71.8832L99.5193 71.9854H101.245L101.304 71.9416L102.152 70.3643H106.774L107.637 71.9416L107.696 71.9854H109.641L109.7 71.8686L105.443 64.4641L105.385 64.4349V64.4495ZM102.957 68.9039L104.478 66.1144L105.955 68.9039H102.942H102.957Z" fill="black"/>
<path d="M154.209 69.1959C155.072 69.1959 155.599 69.1521 155.818 69.0937C156.418 68.9185 156.725 68.4365 156.725 67.6917V65.9538C156.725 64.946 156.14 64.4495 154.984 64.4495H148.314L148.563 65.2527V71.1968L148.314 72H150.64L150.421 71.1968V69.1959H151.956L154.926 72H157.456L157.5 71.8686L154.238 69.1959H154.209ZM150.406 67.7939V65.8661H154.209C154.531 65.8661 154.662 65.9099 154.736 65.9538C154.853 66.0122 154.911 66.1582 154.911 66.3773V67.2682C154.911 67.4872 154.853 67.6333 154.721 67.6917C154.633 67.7501 154.458 67.7793 154.194 67.7793H150.391L150.406 67.7939Z" fill="black"/>
<path d="M76.4381 65.8807V65.1797L76.6868 64.3765H74.3611L74.5805 65.1797V69.4004C74.405 69.2252 74.2002 69.0353 73.9369 68.8162L68.7152 64.4495H68.6713L67.4865 64.4349H67.1208L67.3695 65.2381V71.1822L67.1208 71.9854H69.4465L69.2271 71.1822V67.0929C69.3295 67.1951 69.4319 67.2828 69.5489 67.385L74.9901 71.9708H75.0339L76.2041 71.9854H76.6575L76.4089 71.1237V65.8807H76.4381Z" fill="black"/>
<path d="M90.5823 0L90.0118 1.89858L89.2512 4.41055H89.2366L89.2073 50.4438L89.0757 50.2978L67.7937 28.4495L40.5 0H57.5256L56.2092 3.62191L79.4366 28.3034V4.36673L79.3927 4.23529L78.1202 0H90.5823Z" fill="black"/>
<path d="M103.732 50.0057L105.048 54.4162H92.7909L92.8055 54.3578L94.1073 50.0057V4.39594L92.7909 0H105.048L104.346 2.35132L104.302 2.51197L103.732 4.39594V50.0057Z" fill="black"/>
<path d="M107.286 0L108.632 4.41055V50.4L118.432 40.2353V29.5156H129.007L130.06 28.4349L157.398 0.0876268L157.456 0H107.271H107.286ZM118.432 28.4495V9.77039H136.613L118.432 28.4495Z" fill="black"/>
</svg>
