<svg xmlns="http://www.w3.org/2000/svg" width="14.233" height="14.234" viewBox="0 0 14.233 14.234">
  <path id="Path_13178" data-name="Path 13178" d="M11.117,5.69A1.868,1.868,0,1,1,9.249,7.558,1.868,1.868,0,0,1,11.117,5.69m0,8.006c2.642,0,5.426,1.3,5.426,1.868v.979H5.69v-.979C5.69,15,8.475,13.7,11.117,13.7m0-9.7a3.558,3.558,0,1,0,3.558,3.558A3.557,3.557,0,0,0,11.117,4Zm0,8.006C8.741,12.006,4,13.2,4,15.565v2.669H18.233V15.565C18.233,13.2,13.492,12.006,11.117,12.006Z" transform="translate(-4 -4)" fill="#e0d206"/>
</svg>
