<svg width="11" height="15" viewBox="0 0 11 15" fill="none" xmlns="http://www.w3.org/2000/svg">
<path d="M6.97827 14.6186C6.97827 14.8294 6.79948 15 6.57909 15H4.42091C4.20032 15 4.02173 14.8292 4.02173 14.6186C4.02173 14.4081 4.20052 14.2373 4.42091 14.2373H6.57909C6.79968 14.2373 6.97827 14.4081 6.97827 14.6186ZM10.5 10.9752V12.0741C10.5 12.8903 9.80488 13.5544 8.9504 13.5544H2.04941C1.19512 13.5544 0.5 12.8903 0.5 12.0741V10.9752C0.5 10.7644 0.678785 10.5938 0.899176 10.5938H1.00535C1.00437 10.5829 1.00397 10.5717 1.00397 10.5606V9.53838C1.00339 9.51569 1.00496 9.49319 1.00868 9.47107C1.01771 9.41482 1.03969 9.36251 1.07168 9.31713C1.10288 9.27251 1.14429 9.2337 1.19434 9.20445C1.21455 9.19245 1.23594 9.18232 1.25851 9.17389C1.41669 9.11107 1.57369 9.04601 1.72893 8.97945V4.31901C1.72893 3.56133 2.23349 2.89571 2.95315 2.63978C2.95236 2.61897 2.95197 2.59815 2.95197 2.57697V1.63498C2.95197 0.733491 3.7197 0 4.66328 0H6.33672C7.2803 0 8.04803 0.733491 8.04803 1.63498V2.57716C8.04803 2.59816 8.04764 2.61897 8.04686 2.63978C8.33064 2.74065 8.58498 2.90603 8.78771 3.1209C8.79477 3.10815 8.80184 3.09559 8.8089 3.08284C8.91174 2.89646 9.15313 2.82503 9.3484 2.92346C9.54347 3.02171 9.61805 3.25252 9.51521 3.43889C8.76788 4.79188 7.68281 6.04568 6.29001 7.16522C5.17825 8.05884 3.91615 8.83058 2.52767 9.46713V10.5938H8.47272V6.00311C8.47272 5.79237 8.65151 5.62174 8.8719 5.62174C9.09229 5.62174 9.27107 5.79255 9.27107 6.00311V10.5938H10.1008C10.3212 10.5938 10.5 10.7646 10.5 10.9752ZM3.75032 2.57734C3.75032 2.65534 3.76111 2.73109 3.78133 2.80328C3.78466 2.81265 3.78741 2.82203 3.78996 2.83178C3.90418 3.18896 4.25233 3.44958 4.66309 3.44958H6.33652C6.74728 3.44958 7.09543 3.18915 7.20984 2.83196C7.21239 2.82221 7.21534 2.81246 7.21848 2.80309C7.23869 2.73109 7.24949 2.65534 7.24949 2.57734V1.63517C7.24949 1.15424 6.83991 0.763115 6.33672 0.763115H4.66328C4.1599 0.763115 3.75052 1.15442 3.75052 1.63517V2.57734H3.75032ZM2.52728 8.61514C5.01967 7.40635 7.06677 5.72693 8.34555 3.83714C8.22976 3.6307 8.04607 3.47021 7.82803 3.37815C7.53425 3.87558 6.97571 4.21232 6.33652 4.21232H4.66309C4.02389 4.21232 3.46536 3.87558 3.17157 3.37815C2.78986 3.53921 2.52748 3.9052 2.52748 4.31938V8.61533L2.52728 8.61514ZM9.70145 11.3565H8.87778C8.87582 11.3565 8.87366 11.3565 8.8717 11.3565H2.1281C2.12614 11.3565 2.12418 11.3565 2.12202 11.3565H1.29835V12.0739C1.29835 12.4695 1.63532 12.7913 2.04921 12.7913H8.9502C9.36429 12.7913 9.70126 12.4693 9.70126 12.0739V11.3565H9.70145Z" fill="#909090"/>
</svg>
