<svg xmlns="http://www.w3.org/2000/svg" width="13.184" height="17.746" viewBox="0 0 13.184 17.746">
  <g id="noun-car-seat-1694451" transform="translate(-157.399 -17.793)">
    <path id="Path_37788" data-name="Path 37788" d="M157.605,32.765a2.506,2.506,0,0,0,.67,1.253,5.15,5.15,0,0,0,1.661,1.341.217.217,0,0,0,.131.029h7.914a.111.111,0,0,0,.073-.029,5.564,5.564,0,0,0,1.661-1.341,2.559,2.559,0,0,0,.67-1.253c.117-.772-.2-1.938-1.078-2.172-.087-.816-.146-1.385-.16-1.705-.015-.175-.029-.364-.058-.539s-.058-.364-.087-.539q-.022-.131-.044-.219v-.029a12.931,12.931,0,0,1-.087-3.367,2.2,2.2,0,0,0-.539-1.632,1.444,1.444,0,0,0-1.049-.481h-1.559v-.6h.394a.867.867,0,0,0,.656-.291.614.614,0,0,0,.131-.539l-.51-2.142a.78.78,0,0,0-.787-.568h-3.163a.78.78,0,0,0-.787.568l-.466,2.142a.614.614,0,0,0,.131.539.819.819,0,0,0,.656.291h.394v.6h-1.443a1.473,1.473,0,0,0-.977.466,2.134,2.134,0,0,0-.539,1.6,8.835,8.835,0,0,1-.248,3.09l-.015.044c-.029.117-.073.248-.117.408-.131.5-.2.874-.219.947a7.554,7.554,0,0,0,0,1.909h-.044a1.942,1.942,0,0,0-1.166,2.215Zm1.108.889a1.854,1.854,0,0,1-.539-.962c-.087-.568.146-1.428.729-1.545a1.186,1.186,0,0,1,1.166.656v2.988a5.119,5.119,0,0,1-1.355-1.137ZM167.4,34.82h-6.748V31.963a.111.111,0,0,0,.029-.073h6.7v2.93Zm-5.9-8.031h5.043v4.533H161.5Zm8.308,5.888a2.087,2.087,0,0,1-.539.962,4.645,4.645,0,0,1-1.283,1.093V31.876a1.254,1.254,0,0,1,.976-.743c.029,0,.044.015.073.015h.058c.554.087.8.991.714,1.53Zm-2.551-10a.819.819,0,0,1,.612.291,1.582,1.582,0,0,1,.379,1.2,13.484,13.484,0,0,0,.1,3.542v.029a1.547,1.547,0,0,1,.044.2c.029.16.058.335.087.5a2.848,2.848,0,0,1,.044.5c.015.306.073.874.16,1.647a1.824,1.824,0,0,0-1.064.743h-.51V22.679Zm-5.48-1.836a.113.113,0,0,1-.015-.044l.466-2.142a.225.225,0,0,1,.219-.117h3.177c.131,0,.2.058.219.117l.466,2.142a.072.072,0,0,1-.015.044.243.243,0,0,1-.2.073h-4.125a.257.257,0,0,1-.189-.073Zm1.166.656H165.1v.6H162.94Zm3.615,1.181v3.527H161.5V22.68ZM159.4,28.743c.015-.073.073-.423.2-.889.044-.16.087-.277.1-.364l.015-.044a9.706,9.706,0,0,0,.262-3.294,1.576,1.576,0,0,1,.393-1.181.961.961,0,0,1,.554-.291v8.628h-.466a1.855,1.855,0,0,0-1.049-.729,7.531,7.531,0,0,1-.015-1.836Z" transform="translate(0)" fill="#e0d206" stroke="#e0d206" stroke-width="0.3"/>
  </g>
</svg>
