<?xml version="1.0" encoding="UTF-8"?><svg id="Layer_1" xmlns="http://www.w3.org/2000/svg" viewBox="0 0 512 512"><defs><style>.cls-1{fill:#fff;}</style></defs><path class="cls-1" d="M38.07,397.69c2.59-.78,3.91-2.8,3.91-6.01v-7.44c0-4.28-2.5-6.46-7.44-6.46H7.37s-1.37,0-1.37,0l1.07,3.41v25.51l-1.07,3.41h9.92l-.96-3.43v-2.98h0v-5.57h6.55l12.69,11.9.21.08h10.57l.2-.55-13.96-11.44c3.69-.02,5.93-.16,6.84-.44ZM14.96,392.11v-7.9h0v-.33h16.26c1.35,0,1.96.21,2.25.39.51.27.76.87.76,1.82v3.81c0,.95-.25,1.54-.78,1.83-.4.25-1.15.38-2.23.38H14.96Z"/><polygon class="cls-1" points="73.56 403.54 73.56 396.29 87.88 396.29 88.19 395.98 88.19 390.57 87.88 390.26 73.56 390.26 73.56 383.82 98.32 383.82 98.63 383.51 98.63 378.1 98.32 377.79 65.88 377.79 65.87 377.79 64.57 377.79 65.57 380.98 65.57 406.93 64.57 410.12 74.49 410.12 74.49 410.12 98.63 410.12 98.94 409.81 98.94 403.85 98.63 403.54 73.56 403.54"/><polygon class="cls-1" points="176.92 377.79 176.61 378.1 176.61 383.75 176.92 384.06 191.17 384.06 191.17 406.74 190.12 410.12 200.04 410.12 199.17 407.01 199.17 384.06 213.48 384.06 213.79 383.75 213.79 378.1 213.48 377.79 176.92 377.79"/><path class="cls-1" d="M361.52,410.12c-3.1,0-5.19-.53-6.38-1.62-1.21-1.09-1.79-3.12-1.79-6.19v-16.71c0-.47.02-.91.04-1.33v-3.29l-.96-3.18h9.92-.08,17.99c4.62,0,8.37,3.75,8.37,8.37v1.45l-.26.31h-7.37l-.36-.31v-3.54h-19.29v19.47h19.29v-4.03l.37-.3h7.37l.25.3v2.24c0,4.62-3.75,8.37-8.37,8.37h-18.73Z"/><path class="cls-1" d="M430.59,377.79h-7.13l-.27.16-17.94,31.71.27.46h7.37l.27-.16,3.6-6.78h19.72l3.72,6.78.27.16h8.3l.27-.46-18.19-31.71-.27-.16ZM420.23,396.84l6.54-11.94,6.31,11.94h-12.85Z"/><path class="cls-1" d="M283.34,377.79h-7.13l-.27.16-17.94,31.71.27.46h7.37l.27-.16,3.6-6.78h19.72l3.72,6.78.27.16h8.3l.27-.46-18.19-31.71-.27-.16ZM272.99,396.84l6.54-11.94,6.31,11.94h-12.85Z"/><path class="cls-1" d="M492.04,398.13c3.69-.02,5.93-.16,6.84-.44,2.59-.78,3.91-2.8,3.91-6.01v-7.44c0-4.28-2.5-6.46-7.44-6.46h-27.17s-1.38,0-1.38,0l1.07,3.44v12.73s0,12.73,0,12.73l-1.07,3.43h9.92l-.96-3.43v-2.98h0v-5.57h6.56l12.69,11.98h10.78l.2-.55-13.96-11.44ZM475.77,392.11v-7.9h0v-.33h16.27c1.35,0,1.96.21,2.25.39.51.27.76.87.76,1.82v3.81c0,.95-.25,1.54-.78,1.83-.4.25-1.15.38-2.23.38h-16.27Z"/><path class="cls-1" d="M159.6,383.93v-2.98l1.07-3.44h-9.92l.96,3.44v18.09c-.74-.74-1.65-1.57-2.74-2.49l-22.31-18.68-.2-.07h-5.04s-1.55,0-1.55,0l1.07,3.44v12.73s0,12.73,0,12.73l-1.07,3.43h9.92l-.96-3.43v-2.98h0v-14.5c.43.42.89.84,1.37,1.24l23.29,19.6.2.07h6.98l-1.07-3.72v-22.48Z"/><polygon class="cls-1" points="220.1 101.88 217.66 110.04 214.36 120.79 214.32 120.79 214.32 120.93 214.27 223.69 214.22 317.83 213.63 317.23 122.64 223.69 6 101.88 78.75 101.88 73.16 117.36 172.42 223.05 172.42 120.55 172.26 120.02 166.81 101.88 220.1 101.88"/><polygon class="cls-1" points="276.26 315.95 281.94 334.84 281.93 334.85 229.49 334.85 229.56 334.61 235.16 315.95 235.16 120.73 229.49 101.88 281.94 101.88 278.91 111.94 278.71 112.61 276.26 120.73 276.26 315.95"/><path class="cls-1" d="M291.46,101.88l.02.06,5.76,18.83v30.85s0,166.06,0,166.06l41.86-43.52v-45.87l45.22.08,4.52-4.69,116.82-121.44.06-.07.27-.29h-214.54ZM339.11,223.69v-79.98h77.72l-77.72,79.98Z"/></svg>